<svg viewBox="0 0 12 14" xmlns="http://www.w3.org/2000/svg">
<path d="M6 6.99998C6.36667 6.99998 6.68067 6.86931 6.942 6.60798C7.20289 6.34709 7.33333 6.03331 7.33333 5.66665C7.33333 5.29998 7.20289 4.98598 6.942 4.72465C6.68067 4.46376 6.36667 4.33331 6 4.33331C5.63333 4.33331 5.31956 4.46376 5.05867 4.72465C4.79733 4.98598 4.66667 5.29998 4.66667 5.66665C4.66667 6.03331 4.79733 6.34709 5.05867 6.60798C5.31956 6.86931 5.63333 6.99998 6 6.99998ZM6 11.9C7.35556 10.6555 8.36111 9.52487 9.01667 8.50798C9.67222 7.49154 10 6.58887 10 5.79998C10 4.58887 9.61378 3.59709 8.84133 2.82465C8.06933 2.05265 7.12222 1.66665 6 1.66665C4.87778 1.66665 3.93045 2.05265 3.158 2.82465C2.386 3.59709 2 4.58887 2 5.79998C2 6.58887 2.32778 7.49154 2.98333 8.50798C3.63889 9.52487 4.64445 10.6555 6 11.9ZM6 13.6666C4.21111 12.1444 2.87511 10.7304 1.992 9.42465C1.10845 8.11931 0.666668 6.91109 0.666668 5.79998C0.666668 4.13331 1.20289 2.80554 2.27533 1.81665C3.34733 0.827757 4.58889 0.333313 6 0.333313C7.41111 0.333313 8.65267 0.827757 9.72467 1.81665C10.7971 2.80554 11.3333 4.13331 11.3333 5.79998C11.3333 6.91109 10.8918 8.11931 10.0087 9.42465C9.12511 10.7304 7.78889 12.1444 6 13.6666Z" />
</svg>
