<svg viewBox="0 0 14 14" xmlns="http://www.w3.org/2000/svg">
<path d="M5.66667 5.66665C4.93333 5.66665 4.30555 5.40554 3.78333 4.88331C3.26111 4.36109 3 3.73331 3 2.99998C3 2.26665 3.26111 1.63887 3.78333 1.11665C4.30555 0.594424 4.93333 0.333313 5.66667 0.333313C6.4 0.333313 7.02778 0.594424 7.55 1.11665C8.07222 1.63887 8.33333 2.26665 8.33333 2.99998C8.33333 3.73331 8.07222 4.36109 7.55 4.88331C7.02778 5.40554 6.4 5.66665 5.66667 5.66665ZM5.66667 4.33331C6.03333 4.33331 6.34733 4.20265 6.60867 3.94131C6.86955 3.68042 7 3.36665 7 2.99998C7 2.63331 6.86955 2.31954 6.60867 2.05865C6.34733 1.79731 6.03333 1.66665 5.66667 1.66665C5.3 1.66665 4.98622 1.79731 4.72533 2.05865C4.464 2.31954 4.33333 2.63331 4.33333 2.99998C4.33333 3.36665 4.464 3.68042 4.72533 3.94131C4.98622 4.20265 5.3 4.33331 5.66667 4.33331ZM13.0667 13.3333L10.9333 11.2C10.7 11.3333 10.45 11.4444 10.1833 11.5333C9.91667 11.6222 9.63333 11.6666 9.33333 11.6666C8.5 11.6666 7.79155 11.3751 7.208 10.792C6.62489 10.2084 6.33333 9.49998 6.33333 8.66665C6.33333 7.83331 6.62489 7.12487 7.208 6.54131C7.79155 5.9582 8.5 5.66665 9.33333 5.66665C10.1667 5.66665 10.8751 5.9582 11.4587 6.54131C12.0418 7.12487 12.3333 7.83331 12.3333 8.66665C12.3333 8.96665 12.2889 9.24998 12.2 9.51665C12.1111 9.78331 12 10.0333 11.8667 10.2666L14 12.4L13.0667 13.3333ZM9.33333 10.3333C9.8 10.3333 10.1944 10.1722 10.5167 9.84998C10.8389 9.52776 11 9.13331 11 8.66665C11 8.19998 10.8389 7.80554 10.5167 7.48331C10.1944 7.16109 9.8 6.99998 9.33333 6.99998C8.86667 6.99998 8.47222 7.16109 8.15 7.48331C7.82778 7.80554 7.66667 8.19998 7.66667 8.66665C7.66667 9.13331 7.82778 9.52776 8.15 9.84998C8.47222 10.1722 8.86667 10.3333 9.33333 10.3333ZM0.333332 11V9.14998C0.333332 8.7722 0.427776 8.4222 0.616665 8.09998C0.805554 7.77776 1.06667 7.53331 1.4 7.36665C1.96667 7.07776 2.60555 6.83331 3.31667 6.63331C4.02778 6.43331 4.81667 6.33331 5.68333 6.33331C5.55 6.53331 5.43622 6.74709 5.342 6.97465C5.24733 7.20265 5.17222 7.43887 5.11667 7.68331C4.45 7.73887 3.85555 7.85265 3.33333 8.02465C2.81111 8.19709 2.37222 8.37776 2.01667 8.56665C1.90555 8.6222 1.81955 8.70265 1.75867 8.80798C1.69733 8.91376 1.66667 9.02776 1.66667 9.14998V9.66665H5.11667C5.17222 9.91109 5.24733 10.1444 5.342 10.3666C5.43622 10.5889 5.55 10.8 5.68333 11H0.333332Z" />
</svg>
