<?xml version="1.0" encoding="utf-8"?>
<!-- Generator: Adobe Illustrator 26.0.1, SVG Export Plug-In . SVG Version: 6.00 Build 0)  -->
<svg version="1.1" id="Слой_1" xmlns="http://www.w3.org/2000/svg" xmlns:xlink="http://www.w3.org/1999/xlink" x="0px" y="0px"
	 viewBox="0 0 300 300" style="enable-background:new 0 0 300 300;" xml:space="preserve">
<g>
	<path d="M120.1,161.9c-3.9-3-9.1-4.5-15.6-4.5H71.9v37.3l32,0h0c2.8,0,5.6-0.3,8.4-0.9c2.7-0.6,5-1.5,7-2.9c2-1.3,3.6-3.1,4.9-5.4
		c1.2-2.3,1.8-5.2,1.8-8.8C126,169.9,124,164.9,120.1,161.9z"/>
	<path d="M224,140.1c-3.2-3.6-8.2-5.3-14.8-5.3c-4.3,0-7.9,0.7-10.8,2.2c-2.9,1.5-5.1,3.3-6.9,5.4c-1.7,2.2-2.9,4.4-3.6,6.9
		c-0.7,2.4-1.1,4.6-1.2,6.5h44C229.5,148.9,227.3,143.7,224,140.1L224,140.1z"/>
	<path d="M102.2,137.1c5.3,0,9.7-1.3,13.1-3.8c3.4-2.5,5.1-6.7,5.1-12.4c0-3.2-0.6-5.8-1.7-7.8c-1.1-2-2.7-3.6-4.6-4.8
		c-1.9-1.1-4.1-1.9-6.6-2.4c-2.5-0.4-5.1-0.7-7.7-0.7h-28v31.8L102.2,137.1L102.2,137.1z"/>
	<path d="M150,0C67.2,0,0,67.2,0,150s67.2,150,150,150s150-67.2,150-150S232.8,0,150,0z M182.2,88.9h54.9v15.2h-54.9V88.9z
		 M151.9,196.4c-2.7,5-6.3,9.1-10.8,12.3c-4.5,3.2-9.6,5.5-15.4,7c-5.8,1.5-11.8,2.3-17.8,2.3H42V82h64c6.5,0,12.4,0.6,17.7,1.7
		s9.9,3,13.7,5.6c3.8,2.6,6.8,6.1,8.9,10.4c2.1,4.3,3.1,9.6,3.1,16c0,6.9-1.6,12.6-4.7,17.1s-7.7,8.3-13.8,11.2
		c8.4,2.4,14.6,6.6,18.8,12.7c4.1,6,6.2,13.3,6.2,21.8C155.9,185.4,154.5,191.4,151.9,196.4z M193.5,191.9L193.5,191.9
		c4.1,3.9,9.9,5.9,17.5,5.9c5.5,0,10.2-1.4,14.1-4.1c3.9-2.7,6.3-5.6,7.2-8.7h23.8c-3.8,11.8-9.6,20.2-17.5,25.3
		c-7.9,5.1-17.4,7.6-28.6,7.6c-7.7,0-14.7-1.2-20.9-3.7c-6.2-2.5-11.5-6-15.8-10.6c-4.3-4.6-7.7-10-10-16.4
		c-2.3-6.3-3.5-13.3-3.5-20.9c0-7.4,1.2-14.2,3.6-20.6c2.4-6.3,5.8-11.8,10.3-16.5c4.4-4.6,9.7-8.3,15.9-10.9s13-4,20.5-4
		c8.4,0,15.7,1.6,21.9,4.9c6.2,3.2,11.3,7.6,15.3,13c4,5.5,6.9,11.7,8.7,18.7s2.4,14.3,1.9,21.9h-71
		C187.2,181.6,189.4,188,193.5,191.9z"/>
</g>
</svg>
