<?xml version="1.0" encoding="utf-8"?>
<!-- Generator: Adobe Illustrator 26.0.1, SVG Export Plug-In . SVG Version: 6.00 Build 0)  -->
<svg version="1.1" id="Слой_1" xmlns="http://www.w3.org/2000/svg" xmlns:xlink="http://www.w3.org/1999/xlink" x="0px" y="0px"
	 viewBox="0 0 300 300" style="enable-background:new 0 0 300 300;" xml:space="preserve">
<path d="M254.1,53.3c-19.4-9.1-40.2-15.7-61.9-19.4c-2.7,4.8-5.8,11.3-7.9,16.5c-23.1-3.5-45.9-3.5-68.6,0c-2.1-5.2-5.3-11.6-8-16.5
	C86,37.6,65.2,44.3,45.8,53.4C6.6,112.6-4,170.3,1.3,227.2c26,19.4,51.2,31.2,75.9,38.9c6.1-8.4,11.6-17.4,16.3-26.8
	c-8.9-3.4-17.5-7.6-25.6-12.5c2.1-1.6,4.2-3.3,6.3-5c49.4,23.1,103,23.1,151.8,0c2.1,1.7,4.2,3.4,6.3,5c-8.1,4.9-16.7,9.1-25.6,12.5
	c4.7,9.4,10.1,18.4,16.3,26.8c24.8-7.7,50-19.5,76-38.9C305,161.2,288.1,104,254.1,53.3z M100.2,192.2c-14.8,0-27-13.8-27-30.7
	s11.9-30.7,27-30.7c15.1,0,27.2,13.8,27,30.7C127.2,178.4,115.2,192.2,100.2,192.2z M199.8,192.2c-14.8,0-27-13.8-27-30.7
	s11.9-30.7,27-30.7c15.1,0,27.2,13.8,27,30.7C226.8,178.4,214.9,192.2,199.8,192.2z"/>
</svg>
