<?xml version="1.0" encoding="utf-8"?>
<!-- Generator: Adobe Illustrator 26.0.1, SVG Export Plug-In . SVG Version: 6.00 Build 0)  -->
<svg version="1.1" id="Слой_1" xmlns="http://www.w3.org/2000/svg" xmlns:xlink="http://www.w3.org/1999/xlink" x="0px" y="0px"
	 viewBox="0 0 300 300" style="enable-background:new 0 0 300 300;" xml:space="preserve">
<path d="M150,0.5C67.2,0.5,0,67.7,0,150.5c0,70.3,48.4,129.4,113.8,145.6v-99.7H82.8v-45.8h0v0h30.9v-19.8
	c0-51.1,23.1-74.7,73.2-74.7c5,0,11.9,0.5,18.3,1.3c5.8,0.7,11.1,1.6,14.3,2.4v41.6c-2.1-0.2-5-0.4-8.7-0.5
	c-2.6-0.1-5.5-0.1-8.6-0.1c-8.2,0-14.7,1-19.7,3.3c-4.4,2-7.7,4.9-10.1,9c-3,5.2-4.3,12.2-4.3,21.3v16.2h49l0,0h0l-4.8,26l-3.6,19.9
	h0l0,0h-40.6v103.1c74.3-9,131.8-72.2,131.8-148.9C300,67.7,232.8,0.5,150,0.5z"/>
</svg>
