<?xml version="1.0" encoding="utf-8"?>
<!-- Generator: Adobe Illustrator 26.0.1, SVG Export Plug-In . SVG Version: 6.00 Build 0)  -->
<svg version="1.1" id="Слой_1" xmlns="http://www.w3.org/2000/svg" xmlns:xlink="http://www.w3.org/1999/xlink" x="0px" y="0px"
	 viewBox="0 0 300 300" style="enable-background:new 0 0 300 300;" xml:space="preserve">
<style type="text/css">
	.st0{fill-rule:evenodd;clip-rule:evenodd;}
</style>
<path class="st0" d="M150,3.7C67.1,3.7,0,70.8,0,153.7C0,220.1,42.9,276.1,102.6,296c7.5,1.3,10.3-3.2,10.3-7.1
	c0-3.6-0.2-15.4-0.2-27.9c-37.7,6.9-47.4-9.2-50.4-17.6c-1.7-4.3-9-17.6-15.4-21.2c-5.2-2.8-12.8-9.7-0.2-9.9
	c11.8-0.2,20.2,10.9,23.1,15.4c13.5,22.7,35.1,16.3,43.7,12.4c1.3-9.8,5.2-16.3,9.6-20.1c-33.4-3.8-68.2-16.7-68.2-74.1
	c0-16.3,5.8-29.8,15.4-40.3c-1.5-3.7-6.7-19.1,1.5-39.8c0,0,12.6-3.9,41.2,15.4c12-3.4,24.8-5.1,37.5-5.1c12.7,0,25.5,1.7,37.5,5.1
	c28.7-19.5,41.2-15.4,41.2-15.4c8.2,20.6,3,36,1.5,39.8c9.6,10.5,15.4,23.8,15.4,40.3c0,57.6-35.1,70.3-68.4,74.1
	c5.4,4.7,10.1,13.7,10.1,27.8c0,20.1-0.2,36.2-0.2,41.2c0,3.9,2.8,8.6,10.3,7.1C257.1,276.1,300,219.9,300,153.7
	C300,70.8,232.9,3.7,150,3.7z"/>
</svg>
