<?xml version="1.0" encoding="utf-8"?>
<!-- Generator: Adobe Illustrator 26.0.1, SVG Export Plug-In . SVG Version: 6.00 Build 0)  -->
<svg version="1.1" id="Слой_1" xmlns="http://www.w3.org/2000/svg" xmlns:xlink="http://www.w3.org/1999/xlink" x="0px" y="0px"
	 viewBox="0 0 300 300" style="enable-background:new 0 0 300 300;" xml:space="preserve">
<path d="M295,119.9l-0.4-1.1L253.8,12.3c-0.8-2.1-2.3-3.9-4.2-5.1c-3.9-2.4-8.9-2.1-12.5,0.7c-1.7,1.4-3,3.3-3.6,5.5l-27.6,84.4
	H94.2L66.7,13.4c-0.6-2.2-1.9-4.1-3.6-5.5C59.4,5,54.4,4.8,50.5,7.2c-1.9,1.2-3.4,3-4.2,5.1L5.4,118.8L5,119.9
	c-12.1,31.6-1.8,67.3,25.1,87.6l0.1,0.1l0.4,0.3l62.2,46.6l30.8,23.3l18.7,14.2c4.5,3.4,10.7,3.4,15.2,0l18.7-14.2l30.8-23.3
	l62.6-46.9l0.2-0.1C296.8,187.1,307,151.4,295,119.9z"/>
</svg>
