<?xml version="1.0" encoding="utf-8"?>
<!-- Generator: Adobe Illustrator 26.0.1, SVG Export Plug-In . SVG Version: 6.00 Build 0)  -->
<svg version="1.1" id="Слой_1" xmlns="http://www.w3.org/2000/svg" xmlns:xlink="http://www.w3.org/1999/xlink" x="0px" y="0px"
	 viewBox="0 0 300 300" style="enable-background:new 0 0 300 300;" xml:space="preserve">
<g>
	<ellipse cx="150.1" cy="150" rx="37.2" ry="37.2"/>
	<path d="M299.7,65c-0.9-12-3-20.1-7.2-28.7c-3.4-7-7.3-12.2-12.8-17.6c-9.9-9.5-22.1-15.3-36.5-17.3c-7-1-8.4-1.3-44.3-1.4H150
		C87.4,0,69.1,0.1,65.6,0.4C52.7,1.4,44.7,3.5,36,7.8c-6.7,3.3-12,7.2-17.2,12.6c-9.5,9.9-15.3,22-17.4,36.5c-1,7-1.3,8.4-1.4,44.3
		c0,11.9,0,27.7,0,48.8c0,62.6,0.1,80.9,0.4,84.4c1,12.5,3,20.4,7.2,29c7.9,16.5,23.1,28.8,41,33.5c6.2,1.6,13,2.5,21.8,2.9
		c3.7,0.2,41.6,0.3,79.5,0.3c37.9,0,75.8,0,79.4-0.2c10.2-0.5,16-1.3,22.6-3c18-4.6,32.9-16.8,41-33.5c4.1-8.4,6.1-16.6,7.1-28.4
		c0.2-2.6,0.3-43.8,0.3-85C300,108.7,299.9,67.6,299.7,65z M260.9,195.9c-0.6,11.9-2.4,20-5.2,27.1c-2.9,7.3-6.7,13.5-12.9,19.7
		c-6.2,6.2-12.4,10-19.7,12.9c-7.1,2.8-15.2,4.6-27.1,5.2c-11.9,0.5-15.7,0.7-46,0.7c-30.3,0-34.1-0.1-46-0.7
		c-11.9-0.5-20-2.4-27.1-5.2c-7.3-2.8-13.6-6.7-19.8-12.9c-6.2-6.2-10-12.4-12.9-19.7c-2.8-7.1-4.6-15.2-5.2-27.1
		c-0.5-11.9-0.7-15.7-0.7-45.9c0-30.3,0.1-34.1,0.7-46c0.5-11.9,2.4-20,5.2-27.1c2.9-7.3,6.7-13.5,12.9-19.7
		c6.2-6.2,12.4-10,19.8-12.9c7.1-2.8,15.2-4.6,27.1-5.2c11.9-0.5,15.7-0.7,46-0.7c30.3,0,34.1,0.1,46,0.7c11.9,0.5,20,2.4,27.1,5.2
		c7.3,2.8,13.5,6.7,19.8,12.9c6.2,6.2,10,12.4,12.9,19.7c2.7,7.1,4.6,15.2,5.2,27.1c0.5,11.9,0.7,15.7,0.7,46
		C261.6,180.3,261.5,184,260.9,195.9z"/>
	<path d="M237,84.2c-2-5.2-4.4-8.9-8.3-12.8c-3.9-3.9-7.6-6.3-12.8-8.3c-3.9-1.5-9.8-3.3-20.7-3.8c-11.8-0.5-15.3-0.6-45.1-0.6
		c-3.7,0-7,0-10,0l0,0c-20.8,0-24.8,0.2-35.1,0.6c-10.9,0.5-16.8,2.3-20.7,3.8c-5.2,2-8.9,4.4-12.8,8.3c-3.9,3.9-6.3,7.6-8.3,12.8
		c-1.5,3.9-3.3,9.8-3.8,20.7c-0.5,11.7-0.6,15.3-0.6,45c0,29.8,0.1,33.3,0.6,45c0.5,10.9,2.3,16.8,3.8,20.7c2,5.2,4.4,8.9,8.3,12.8
		c3.9,3.9,7.6,6.3,12.8,8.3c3.9,1.5,9.8,3.3,20.7,3.8c11.8,0.5,15.3,0.7,45.1,0.7c29.8,0,33.3-0.1,45.1-0.7
		c10.9-0.5,16.8-2.3,20.7-3.8c5.2-2,8.9-4.4,12.8-8.3c3.9-3.9,6.3-7.6,8.3-12.8c1.5-3.9,3.3-9.8,3.8-20.7c0.5-11.7,0.7-15.3,0.7-45
		c0-29.7-0.1-33.3-0.7-45C240.4,94.1,238.5,88.2,237,84.2z M150.1,207.2c-31.6,0-57.3-25.6-57.3-57.2c0-31.6,25.6-57.2,57.3-57.2
		c31.6,0,57.3,25.6,57.3,57.2C207.3,181.6,181.7,207.2,150.1,207.2z M209.6,103.9c-7.4,0-13.4-6-13.4-13.4c0-7.4,6-13.4,13.4-13.4
		l0,0c7.4,0,13.4,6,13.4,13.4C223,97.9,217,103.9,209.6,103.9z"/>
</g>
</svg>
