<?xml version="1.0" encoding="utf-8"?>
<!-- Generator: Adobe Illustrator 26.0.1, SVG Export Plug-In . SVG Version: 6.00 Build 0)  -->
<svg version="1.1" id="Слой_1" xmlns="http://www.w3.org/2000/svg" xmlns:xlink="http://www.w3.org/1999/xlink" x="0px" y="0px"
	 viewBox="0 0 300 300" style="enable-background:new 0 0 300 300;" xml:space="preserve">
<path d="M264.3,0H35.7C16,0,0,16,0,35.7v228.6C0,284,16,300,35.7,300h228.6c19.7,0,35.7-16,35.7-35.7V35.7C300,16,284,0,264.3,0z
	 M92.9,250H50V114.3h42.9V250z M71.4,92.9C58.6,92.9,50,84.8,50,74.8s8.6-17.6,21.4-17.6c12.9,0,20.9,7.6,21.4,17.6
	C92.9,84.8,84.9,92.9,71.4,92.9z M250,250h-42.9c0,0,0-66.1,0-71.4c0-14.3-7.1-28.6-25-28.9h-0.6c-17.3,0-24.4,14.7-24.4,28.9
	c0,6.5,0,71.4,0,71.4h-42.9V114.3h42.9v18.3c0,0,13.8-18.3,41.5-18.3c28.4,0,51.4,19.5,51.4,59V250z"/>
</svg>
