<?xml version="1.0" encoding="utf-8"?>
<!-- Generator: Adobe Illustrator 26.0.1, SVG Export Plug-In . SVG Version: 6.00 Build 0)  -->
<svg version="1.1" id="Слой_1" xmlns="http://www.w3.org/2000/svg" xmlns:xlink="http://www.w3.org/1999/xlink" x="0px" y="0px"
	 viewBox="0 0 300 300" style="enable-background:new 0 0 300 300;" xml:space="preserve">
<path d="M150,0C67.2,0,0,67.2,0,150s67.2,150,150,150s150-67.2,150-150S232.8,0,150,0z M163.2,235.3c-4.9,3.6-10.8,5.4-17.5,5.4
	c-7.1,0-13.1-1.8-18-5.4c-4.9-3.6-7.4-9.5-7.4-17.6c0-8.5,2.5-14.5,7.4-17.9c4.9-3.4,10.9-5.2,18-5.2c6.7,0,12.6,1.7,17.5,5.2
	c4.9,3.5,7.4,9.4,7.4,17.9C170.6,225.9,168.2,231.7,163.2,235.3z M207.1,120.4c-1.9,5.2-5,10.1-9.1,14.7c-4.2,4.6-9.7,9.1-16.5,13.5
	c-4.8,3.1-8.6,5.7-11.4,7.8c-2.8,2.2-4.7,4.3-5.9,6.3c-1.2,2-1.7,4.3-1.7,6.9v6.1h-37v-10.4c0-5,0.6-9.5,1.9-13.5
	c1.2-4,3.5-7.8,6.7-11.4c3.2-3.6,7.7-7.2,13.4-10.8c5.5-3.4,9.5-6.4,12-9c2.6-2.5,4.3-4.9,5.1-7c0.8-2.1,1.2-4.3,1.2-6.4
	c0-3.4-1.5-6-4.6-8c-3.1-2-7-2.9-11.9-2.9c-6.1,0-12.7,1.1-19.8,3.2c-7.1,2.2-14.7,5.4-22.7,9.6L90,76.3c9.1-5.2,18.7-9.4,29-12.5
	c10.3-3.1,21.5-4.6,33.6-4.6c18.2,0,32.3,4,42.4,12.1c10,8.1,15,18.7,15,31.8C210,109.4,209,115.2,207.1,120.4z"/>
</svg>
