<?xml version="1.0" encoding="utf-8"?>
<!-- Generator: Adobe Illustrator 26.0.1, SVG Export Plug-In . SVG Version: 6.00 Build 0)  -->
<svg version="1.1" id="Слой_1" xmlns="http://www.w3.org/2000/svg" xmlns:xlink="http://www.w3.org/1999/xlink" x="0px" y="0px"
	 viewBox="0 0 300 300" style="enable-background:new 0 0 300 300;" xml:space="preserve">
<style type="text/css">
	.st0{fill-rule:evenodd;clip-rule:evenodd;}
</style>
<path class="st0" d="M150,0C67.2,0,0,67.2,0,150s67.2,150,150,150s150-67.2,150-150S232.8,0,150,0z M219.4,101.9
	c-2.2,23.7-12,81.3-17,107.8c-2.1,11.2-6.2,15-10.2,15.4c-8.7,0.7-15.4-5.7-23.7-11.2c-13.2-8.6-20.6-14-33.5-22.5
	c-14.9-9.7-5.2-15.1,3.2-23.9c2.2-2.2,40.6-37.2,41.3-40.3c0.1-0.4,0.1-1.9-0.7-2.6c-0.9-0.7-2.1-0.5-3.1-0.2
	c-1.4,0.2-22.4,14.2-63.2,41.8c-6,4.1-11.4,6.1-16.2,6c-5.4-0.1-15.6-3-23.4-5.5c-9.4-3-16.9-4.6-16.2-9.9c0.4-2.7,4.1-5.5,11.1-8.4
	c43.7-19,72.8-31.6,87.4-37.7c41.6-17.4,50.3-20.4,56-20.5c1.2,0,4,0.2,5.9,1.7c1.5,1.2,1.9,2.9,2.1,4.1
	C219.4,97.3,219.7,99.9,219.4,101.9z"/>
</svg>
