<?xml version="1.0" encoding="utf-8"?>
<!-- Generator: Adobe Illustrator 26.0.1, SVG Export Plug-In . SVG Version: 6.00 Build 0)  -->
<svg version="1.1" id="Слой_1" xmlns="http://www.w3.org/2000/svg" xmlns:xlink="http://www.w3.org/1999/xlink" x="0px" y="0px"
	 viewBox="0 0 300 300" style="enable-background:new 0 0 300 300;" xml:space="preserve">
<path d="M278.9,21.1C257.8,0,223.9,0,156,0h-12C76.1,0,42.2,0,21.1,21.1C0,42.2,0,76.1,0,144v12c0,67.9,0,101.8,21.1,122.9
	C42.2,300,76.1,300,144,300h12c67.9,0,101.8,0,122.9-21.1C300,257.8,300,223.9,300,156v-12C300,76.1,300,42.2,278.9,21.1z
	 M215.2,216.1c-7.6-23.8-26.6-42.1-51.7-44.6v44.6h-3.9c-68.4,0-107.4-46.9-109-124.9h34.2c1.1,57.2,26.4,81.5,46.4,86.5V91.3h32.3
	v49.4c19.8-2.1,40.5-24.6,47.5-49.4h32.3c-5.4,30.5-27.9,53-43.9,62.2c16,7.5,41.6,27.1,51.4,62.6H215.2z"/>
</svg>
