<?xml version="1.0" encoding="utf-8"?>
<!-- Generator: Adobe Illustrator 26.0.1, SVG Export Plug-In . SVG Version: 6.00 Build 0)  -->
<svg version="1.1" id="Слой_1" xmlns="http://www.w3.org/2000/svg" xmlns:xlink="http://www.w3.org/1999/xlink" x="0px" y="0px"
	 viewBox="0 0 300 300" style="enable-background:new 0 0 300 300;" xml:space="preserve">
<g>
	<path d="M222,172.4c-0.6-0.3-22.5-11.1-26.3-12.4c-1.6-0.6-3.3-1.1-5.1-1.1c-3,0-5.4,1.5-7.4,4.4c-2.2,3.2-8.8,11-10.8,13.3
		c-0.3,0.3-0.6,0.7-0.8,0.7c-0.2,0-3.6-1.4-4.6-1.8c-23.5-10.2-41.3-34.7-43.7-38.8c-0.3-0.6-0.4-0.9-0.4-0.9
		c0.1-0.3,0.9-1.1,1.3-1.5c1.2-1.2,2.5-2.7,3.7-4.2c0.6-0.7,1.2-1.4,1.8-2.1c1.8-2.1,2.6-3.7,3.6-5.6l0.5-1c2.3-4.5,0.3-8.4-0.3-9.6
		c-0.5-1-9.8-23.3-10.7-25.7c-2.4-5.7-5.5-8.3-9.8-8.3c-0.4,0,0,0-1.7,0.1c-2.1,0.1-13.2,1.6-18.2,4.7C87.9,85.9,79,96.4,79,115
		c0,16.7,10.6,32.4,15.1,38.4c0.1,0.2,0.3,0.5,0.6,0.9c17.4,25.4,39.1,44.3,61.1,53.1c21.2,8.5,31.2,9.4,36.9,9.4
		c2.4,0,4.3-0.2,6-0.4l1.1-0.1c7.3-0.6,23.4-9,27.1-19.1c2.9-8,3.6-16.8,1.7-19.9C227.1,174.8,224.8,173.8,222,172.4z"/>
	<path d="M152.7,0C71.4,0,5.3,65.6,5.3,146.2c0,26.1,7,51.6,20.2,74L0.2,294.9c-0.5,1.4-0.1,2.9,0.9,4c0.7,0.8,1.8,1.2,2.8,1.2
		c0.4,0,0.8-0.1,1.2-0.2l77.8-24.7c21.3,11.4,45.4,17.4,69.7,17.4c81.2,0,147.3-65.6,147.3-146.2C300,65.6,233.9,0,152.7,0z
		 M152.7,262c-22.9,0-45.1-6.6-64.2-19.1c-0.6-0.4-1.4-0.6-2.1-0.6c-0.4,0-0.8,0.1-1.2,0.2l-39,12.4l12.6-37.1
		c0.4-1.2,0.2-2.5-0.5-3.6c-14.5-19.9-22.2-43.3-22.2-67.9c0-63.8,52.4-115.8,116.7-115.8s116.7,51.9,116.7,115.8
		C269.4,210.1,217,262,152.7,262z"/>
</g>
</svg>
