<?xml version="1.0" encoding="utf-8"?>
<!-- Generator: Adobe Illustrator 26.0.1, SVG Export Plug-In . SVG Version: 6.00 Build 0)  -->
<svg version="1.1" id="Слой_1" xmlns="http://www.w3.org/2000/svg" xmlns:xlink="http://www.w3.org/1999/xlink" x="0px" y="0px"
	 viewBox="0 0 300 300" style="enable-background:new 0 0 300 300;" xml:space="preserve">
<path d="M293.7,77.8c-3.5-12.9-13.6-23.1-26.5-26.5C243.8,45,150,45,150,45s-93.8,0-117.2,6.3C19.9,54.7,9.7,64.9,6.3,77.8
	C0,101.2,0,150,0,150s0,48.8,6.3,72.2c3.5,12.9,13.6,23.1,26.5,26.5C56.2,255,150,255,150,255s93.8,0,117.2-6.3
	c12.9-3.5,23.1-13.6,26.5-26.5C300,198.8,300,150,300,150S300,101.2,293.7,77.8z M120,195v-90l77.9,45L120,195z"/>
</svg>
