<?xml version="1.0" encoding="utf-8"?>
<!-- Generator: Adobe Illustrator 26.0.1, SVG Export Plug-In . SVG Version: 6.00 Build 0)  -->
<svg version="1.1" id="Слой_1" xmlns="http://www.w3.org/2000/svg" xmlns:xlink="http://www.w3.org/1999/xlink" x="0px" y="0px"
	 viewBox="0 0 24 24" style="enable-background:new 0 0 24 24;" xml:space="preserve">
<g>
	<polygon points="11,4.8 11,16 13,16 13,4.8 14.6,6.4 16,5 12,1 8,5 9.4,6.4 	"/>
	<path d="M19.4,8.6C19,8.2,18.5,8,18,8h-3v2h3v11H6V10h3V8H6C5.5,8,5,8.2,4.6,8.6C4.2,9,4,9.5,4,10v11c0,0.5,0.2,1,0.6,1.4
		C5,22.8,5.5,23,6,23h12c0.5,0,1-0.2,1.4-0.6C19.8,22,20,21.5,20,21V10C20,9.5,19.8,9,19.4,8.6z"/>
</g>
</svg>
