<?xml version="1.0" encoding="utf-8"?>
<!-- Generator: Adobe Illustrator 26.0.1, SVG Export Plug-In . SVG Version: 6.00 Build 0)  -->
<svg version="1.1" id="Слой_1" xmlns="http://www.w3.org/2000/svg" xmlns:xlink="http://www.w3.org/1999/xlink" x="0px" y="0px"
	 viewBox="0 0 15 15" style="enable-background:new 0 0 15 15;" xml:space="preserve">
<g>
	<rect x="2.3" y="11.5" width="5.3" height="1.3"/>
	<path d="M5,14.9c0.7,0,1.3-0.6,1.3-1.3H3.7C3.7,14.2,4.3,14.9,5,14.9z"/>
	<polygon points="12.3,1.6 11.7,0.2 11,1.6 9.7,2.2 11,2.8 11.7,4.2 12.3,2.8 13.7,2.2 	"/>
	<path d="M5,1.5c-2.8,0-5,2.2-5,5c0,2.5,1.8,3.9,2.5,4.3h5C8.2,10.4,10,9,10,6.5C10,3.8,7.8,1.5,5,1.5z M7.1,9.5H2.9
		C2.3,9,1.3,8.1,1.3,6.5c0-2,1.6-3.7,3.7-3.7s3.7,1.6,3.7,3.7C8.7,8.1,7.7,9,7.1,9.5z"/>
	<polygon points="14.1,5.1 13.7,4.2 13.2,5.1 12.3,5.5 13.2,6 13.7,6.8 14.1,6 15,5.5 	"/>
</g>
</svg>
